#define 0008_width 12
#define 0008_height 18
static unsigned char 0008_bits[] = {
   0x00, 0x00, 0x00, 0x00, 0x00, 0x00, 0x00, 0x00, 0x00, 0x00, 0x00, 0x00,
   0x00, 0x00, 0x00, 0x00, 0x00, 0x00, 0x00, 0x00, 0x00, 0x00, 0x00, 0x00,
   0x0c, 0x00, 0x12, 0x00, 0x0c, 0x00, 0x12, 0x00, 0x0c, 0x00, 0x00, 0x00};
