#define 0008_width 12
#define 0008_height 18
static unsigned char 0008_bits[] = {
   0x00, 0x00, 0x1e, 0x00, 0x02, 0x00, 0x0e, 0x00, 0x02, 0x00, 0x02, 0x00,
   0x10, 0x00, 0x10, 0x00, 0x10, 0x00, 0x10, 0x00, 0x70, 0x00, 0x00, 0x00,
   0x00, 0x03, 0x80, 0x04, 0x80, 0x04, 0x80, 0x07, 0x80, 0x04, 0x00, 0x00};
