#define 0009_width 12
#define 0009_height 18
static unsigned char 0009_bits[] = {
   0x00, 0x00, 0x1e, 0x02, 0x02, 0x01, 0x0e, 0x01, 0x82, 0x00, 0x82, 0x00,
   0x50, 0x00, 0x50, 0x00, 0x30, 0x00, 0x30, 0x00, 0x70, 0x00, 0x10, 0x00,
   0x08, 0x03, 0x88, 0x04, 0x84, 0x04, 0x84, 0x07, 0x82, 0x04, 0x00, 0x00};
