#define 0009_width 12
#define 0009_height 18
static unsigned char 0009_bits[] = {
   0x00, 0x00, 0x00, 0x00, 0x00, 0x00, 0x00, 0x00, 0x00, 0x00, 0x00, 0x00,
   0x00, 0x00, 0x00, 0x00, 0x00, 0x00, 0x00, 0x00, 0x00, 0x00, 0x00, 0x00,
   0x0c, 0x00, 0x12, 0x00, 0x1c, 0x00, 0x10, 0x00, 0x10, 0x00, 0x00, 0x00};
