#define 0010_width 12
#define 0010_height 18
static unsigned char 0010_bits[] = {
   0x00, 0x00, 0x00, 0x00, 0x00, 0x00, 0x00, 0x00, 0x00, 0x00, 0x00, 0x00,
   0x00, 0x00, 0x00, 0x00, 0x00, 0x00, 0x00, 0x00, 0x00, 0x00, 0x00, 0x00,
   0x04, 0x00, 0x0a, 0x00, 0x0e, 0x00, 0x0a, 0x00, 0x0a, 0x00, 0x00, 0x00};
