#define 0011_width 12
#define 0011_height 18
static unsigned char 0011_bits[] = {
   0x00, 0x00, 0x00, 0x00, 0x00, 0x00, 0x00, 0x00, 0x00, 0x00, 0x00, 0x00,
   0x00, 0x00, 0x00, 0x00, 0x00, 0x00, 0x00, 0x00, 0x00, 0x00, 0x00, 0x00,
   0x0e, 0x00, 0x12, 0x00, 0x0e, 0x00, 0x12, 0x00, 0x0e, 0x00, 0x00, 0x00};
