#define 0013_width 12
#define 0013_height 18
static unsigned char 0013_bits[] = {
   0x00, 0x00, 0x08, 0x00, 0x08, 0x00, 0x0c, 0x00, 0x0a, 0x00, 0x0c, 0x00,
   0x00, 0x00, 0x00, 0x00, 0x00, 0x00, 0x00, 0x00, 0x00, 0x00, 0x00, 0x00,
   0x00, 0x00, 0x00, 0x00, 0x00, 0x00, 0x00, 0x00, 0x00, 0x00, 0x00, 0x00};
