#define 0012_width 12
#define 0012_height 18
static unsigned char 0012_bits[] = {
   0x00, 0x00, 0x0e, 0x00, 0x12, 0x00, 0x12, 0x00, 0x12, 0x00, 0x12, 0x00,
   0x12, 0x00, 0x12, 0x00, 0x12, 0x00, 0x0e, 0x00, 0x00, 0x00, 0x00, 0x00,
   0x00, 0x00, 0x00, 0x00, 0x00, 0x00, 0x00, 0x00, 0x00, 0x00, 0x00, 0x00};
