#define 0014_width 12
#define 0014_height 18
static unsigned char 0014_bits[] = {
   0x00, 0x00, 0x00, 0x00, 0x00, 0x00, 0x00, 0x00, 0x00, 0x00, 0x00, 0x00,
   0x00, 0x00, 0x00, 0x00, 0x00, 0x00, 0x00, 0x00, 0x00, 0x00, 0x00, 0x00,
   0x06, 0x00, 0x0a, 0x00, 0x0a, 0x00, 0x0a, 0x00, 0x06, 0x00, 0x00, 0x00};
