#define 0015_width 12
#define 0015_height 18
static unsigned char 0015_bits[] = {
   0x00, 0x00, 0x00, 0x00, 0x00, 0x00, 0x00, 0x00, 0x00, 0x00, 0x00, 0x00,
   0x00, 0x00, 0x00, 0x00, 0x00, 0x00, 0x00, 0x00, 0x00, 0x00, 0x00, 0x00,
   0x0e, 0x00, 0x02, 0x00, 0x0e, 0x00, 0x02, 0x00, 0x0e, 0x00, 0x00, 0x00};
