#define 0016_width 12
#define 0016_height 18
static unsigned char 0016_bits[] = {
   0x00, 0x00, 0x00, 0x00, 0x00, 0x00, 0x00, 0x00, 0x00, 0x00, 0x00, 0x00,
   0x00, 0x00, 0x00, 0x00, 0x00, 0x00, 0x00, 0x00, 0x00, 0x00, 0x00, 0x00,
   0x12, 0x00, 0x2a, 0x00, 0x2a, 0x00, 0x2a, 0x00, 0x12, 0x00, 0x00, 0x00};
