#define 0017_width 12
#define 0017_height 18
static unsigned char 0017_bits[] = {
   0x00, 0x00, 0x1c, 0x00, 0x14, 0x00, 0x0c, 0x00, 0x14, 0x00, 0x14, 0x00,
   0x00, 0x00, 0x00, 0x00, 0x00, 0x00, 0x00, 0x00, 0x00, 0x00, 0x00, 0x00,
   0xc0, 0x03, 0x40, 0x00, 0x40, 0x03, 0x40, 0x02, 0xc0, 0x03, 0x00, 0x00};
