#define 0018_width 12
#define 0018_height 18
static unsigned char 0018_bits[] = {
   0x00, 0x00, 0x3c, 0x00, 0x04, 0x00, 0x34, 0x00, 0x24, 0x00, 0x3c, 0x00,
   0x00, 0x00, 0x00, 0x00, 0x00, 0x00, 0x00, 0x00, 0x00, 0x00, 0x00, 0x00,
   0xc0, 0x03, 0x40, 0x00, 0x40, 0x03, 0x40, 0x02, 0xc0, 0x03, 0x00, 0x00};
