#define 0004_width 12
#define 0004_height 18
static unsigned char 0004_bits[] = {
   0x00, 0x00, 0x1c, 0x00, 0x14, 0x00, 0x0c, 0x00, 0x14, 0x00, 0x1c, 0x00,
   0x00, 0x00, 0x00, 0x00, 0x00, 0x00, 0x00, 0x00, 0x00, 0x00, 0x00, 0x00,
   0xc0, 0x07, 0x00, 0x01, 0x00, 0x01, 0x00, 0x01, 0x00, 0x01, 0x00, 0x00};
