#define 0021_width 12
#define 0021_height 18
static unsigned char 0021_bits[] = {
   0x00, 0x00, 0x44, 0x00, 0x6c, 0x00, 0x54, 0x00, 0x44, 0x00, 0x44, 0x00,
   0x00, 0x00, 0x00, 0x00, 0x00, 0x00, 0x00, 0x00, 0x00, 0x00, 0x00, 0x00,
   0xc0, 0x03, 0x40, 0x00, 0x40, 0x03, 0x40, 0x02, 0xc0, 0x03, 0x00, 0x00};
