#define 0022_width 12
#define 0022_height 18
static unsigned char 0022_bits[] = {
   0x00, 0x00, 0x38, 0x00, 0x04, 0x00, 0x04, 0x00, 0x04, 0x00, 0x38, 0x00,
   0x00, 0x00, 0x00, 0x00, 0x00, 0x00, 0x00, 0x00, 0x00, 0x00, 0x00, 0x00,
   0xc0, 0x03, 0x40, 0x00, 0x40, 0x03, 0x40, 0x02, 0xc0, 0x03, 0x00, 0x00};
