#define 0023_width 12
#define 0023_height 18
static unsigned char 0023_bits[] = {
   0x00, 0x00, 0x44, 0x00, 0x44, 0x00, 0x54, 0x00, 0x54, 0x00, 0x28, 0x00,
   0x00, 0x00, 0x00, 0x00, 0x00, 0x00, 0x00, 0x00, 0x00, 0x00, 0x00, 0x00,
   0xc0, 0x03, 0x40, 0x00, 0x40, 0x03, 0x40, 0x02, 0xc0, 0x03, 0x00, 0x00};
