#define 0024_width 12
#define 0024_height 18
static unsigned char 0024_bits[] = {
   0x00, 0x00, 0x00, 0x00, 0x00, 0x00, 0x00, 0x00, 0x00, 0x00, 0x00, 0x00,
   0x00, 0x00, 0x00, 0x00, 0x00, 0x00, 0x00, 0x00, 0x00, 0x00, 0x00, 0x00,
   0x12, 0x00, 0x2a, 0x00, 0x32, 0x00, 0x22, 0x00, 0x22, 0x00, 0x00, 0x00};
