#define 0025_width 12
#define 0025_height 18
static unsigned char 0025_bits[] = {
   0x00, 0x00, 0x00, 0x00, 0x7e, 0x00, 0x7e, 0x00, 0x7e, 0x00, 0x70, 0x00,
   0x70, 0x00, 0x70, 0x00, 0x00, 0x00, 0x00, 0x00, 0x00, 0x00, 0x00, 0x00,
   0x00, 0x00, 0x00, 0x00, 0x00, 0x00, 0x00, 0x00, 0x00, 0x00, 0x00, 0x00};
