#define 0026_width 12
#define 0026_height 18
static unsigned char 0026_bits[] = {
   0x00, 0x00, 0x00, 0x00, 0x36, 0x00, 0x36, 0x00, 0x00, 0x00, 0x30, 0x00,
   0x30, 0x00, 0x00, 0x00, 0x00, 0x00, 0x00, 0x00, 0x00, 0x00, 0x00, 0x00,
   0x00, 0x00, 0x00, 0x00, 0x00, 0x00, 0x00, 0x00, 0x00, 0x00, 0x00, 0x00};
