#define 0027_width 12
#define 0027_height 18
static unsigned char 0027_bits[] = {
   0x00, 0x00, 0x00, 0x00, 0x00, 0x00, 0x00, 0x00, 0x00, 0x00, 0x00, 0x00,
   0x00, 0x00, 0x00, 0x00, 0x00, 0x00, 0x00, 0x00, 0x00, 0x00, 0x00, 0x00,
   0x1a, 0x00, 0x2a, 0x00, 0x1a, 0x00, 0x2a, 0x00, 0x1a, 0x00, 0x00, 0x00};
