#define 0028_width 12
#define 0028_height 18
static unsigned char 0028_bits[] = {
   0x00, 0x00, 0x26, 0x00, 0x2a, 0x00, 0xa6, 0x00, 0x6a, 0x00, 0xa6, 0x00,
   0x00, 0x00, 0x00, 0x00, 0x00, 0x00, 0x00, 0x00, 0x00, 0x00, 0x00, 0x00,
   0x00, 0x00, 0x00, 0x00, 0x00, 0x00, 0x00, 0x00, 0x00, 0x00, 0x00, 0x00};
