#define 0029_width 12
#define 0029_height 18
static unsigned char 0029_bits[] = {
   0x00, 0x00, 0x06, 0x00, 0x0a, 0x00, 0x46, 0x00, 0xaa, 0x00, 0xc6, 0x00,
   0x80, 0x00, 0xa0, 0x00, 0x40, 0x00, 0x00, 0x00, 0x00, 0x00, 0x00, 0x00,
   0x00, 0x00, 0x00, 0x00, 0x00, 0x00, 0x00, 0x00, 0x00, 0x00, 0x00, 0x00};
