#define 0030_width 12
#define 0030_height 18
static unsigned char 0030_bits[] = {
   0x00, 0x00, 0x2a, 0x02, 0x2a, 0x02, 0x2e, 0x03, 0xaa, 0x02, 0x2a, 0x03,
   0x00, 0x00, 0x00, 0x00, 0x00, 0x00, 0x00, 0x00, 0x00, 0x00, 0x00, 0x00,
   0x00, 0x00, 0x00, 0x00, 0x00, 0x00, 0x00, 0x00, 0x00, 0x00, 0x00, 0x00};
