#define 0031_width 12
#define 0031_height 18
static unsigned char 0031_bits[] = {
   0x00, 0x00, 0x66, 0x01, 0x2a, 0x01, 0x66, 0x01, 0x2a, 0x01, 0x6a, 0x01,
   0x00, 0x00, 0x00, 0x00, 0x00, 0x00, 0x00, 0x00, 0x00, 0x00, 0x00, 0x00,
   0x00, 0x00, 0x00, 0x00, 0x00, 0x00, 0x00, 0x00, 0x00, 0x00, 0x00, 0x00};
